<svg xmlns="http://www.w3.org/2000/svg" viewBox="0 0 32 32">
  <defs>
    <linearGradient id="a" x1="6" x2="235" y1="33" y2="344" gradientTransform="translate(1.34 1.34)scale(.07142)" gradientUnits="userSpaceOnUse">
      <stop offset="0" stop-color="#41d1ff"/>
      <stop offset="1" stop-color="#bd34fe"/>
    </linearGradient>
    <linearGradient id="b" x1="194.65" x2="236.26" y1="8.81" y2="292.69" gradientTransform="translate(1.34 1.34)scale(.07142)" gradientUnits="userSpaceOnUse">
      <stop offset="0" stop-color="#ffea83"/>
      <stop offset=".08" stop-color="#ffdd35"/>
      <stop offset="1" stop-color="#ffa800"/>
    </linearGradient>
  </defs>
  <path fill="url(#a)" d="M30.7 7.16 17.2 28.58c-.24.38-.8.38-1.04 0L2.6 7.16c-.3-.48.1-1.09.64-1.09h27.82c.54 0 .94.61.64 1.09Z"/>
  <path fill="url(#b)" d="m23.27 6.07-9.44 17.28c-.13.24-.51.24-.64 0L8.73 13.1c-.18-.32.05-.72.4-.72h4.61c.15 0 .29.08.36.21l2.9 5.31 4.46-8.16c.07-.13.21-.21.36-.21h1.05c.35 0 .58.4.4.72Z"/>
</svg>
